<?xml version="1.0" encoding="UTF-8" standalone="no"?>
<svg
   xmlns:dc="http://purl.org/dc/elements/1.1/"
   xmlns:cc="http://creativecommons.org/ns#"
   xmlns:rdf="http://www.w3.org/1999/02/22-rdf-syntax-ns#"
   xmlns:svg="http://www.w3.org/2000/svg"
   xmlns="http://www.w3.org/2000/svg"
   xmlns:xlink="http://www.w3.org/1999/xlink"
   version="1.1"
   id="svg3782"
   height="256"
   width="256">
  <title
     id="title3352">ShaarliOS Logo</title>
  <defs
     id="defs3784">
    <linearGradient
       id="linearGradient4156">
      <stop
         id="stop4716"
         offset="0"
         style="stop-color:#a9df00;stop-opacity:1;" />
      <stop
         id="stop4718"
         offset="1"
         style="stop-color:#46ad00;stop-opacity:1;" />
    </linearGradient>
    <linearGradient
       y2="238.22549"
       x2="122.55056"
       y1="9.9633837"
       x1="124.88931"
       gradientUnits="userSpaceOnUse"
       id="linearGradient4158"
       xlink:href="#linearGradient4156" />
  </defs>
  <metadata
     id="metadata3787">
    <rdf:RDF>
      <cc:Work
         rdf:about="">
        <dc:format>image/svg+xml</dc:format>
        <dc:type
           rdf:resource="http://purl.org/dc/dcmitype/StillImage" />
        <dc:title>ShaarliOS Logo</dc:title>
        <cc:license
           rdf:resource="http://creativecommons.org/licenses/by-sa/3.0/" />
        <dc:date>2015</dc:date>
        <dc:creator>
          <cc:Agent>
            <dc:title>http://mro.name/me</dc:title>
          </cc:Agent>
        </dc:creator>
        <dc:source>https://github.com/octplane/Shiny-Shaarli/blob/master/src/assets/shaarli-0.png</dc:source>
        <dc:relation>http://sebsauvage.net/wiki/doku.php?id=php:shaarli#credits</dc:relation>
        <dc:subject>
          <rdf:Bag>
            <rdf:li>Shaarli</rdf:li>
            <rdf:li>logo</rdf:li>
          </rdf:Bag>
        </dc:subject>
        <dc:contributor>
          <cc:Agent>
            <dc:title>http://blog.idleman.fr/,
http://oct.zoy.org/</dc:title>
          </cc:Agent>
        </dc:contributor>
        <dc:rights>
          <cc:Agent>
            <dc:title>http://creativecommons.org/licenses/by-sa/3.0/</dc:title>
          </cc:Agent>
        </dc:rights>
        <dc:publisher>
          <cc:Agent>
            <dc:title>http://mro.name/me</dc:title>
          </cc:Agent>
        </dc:publisher>
      </cc:Work>
      <cc:License
         rdf:about="http://creativecommons.org/licenses/by-sa/3.0/">
        <cc:permits
           rdf:resource="http://creativecommons.org/ns#Reproduction" />
        <cc:permits
           rdf:resource="http://creativecommons.org/ns#Distribution" />
        <cc:requires
           rdf:resource="http://creativecommons.org/ns#Notice" />
        <cc:requires
           rdf:resource="http://creativecommons.org/ns#Attribution" />
        <cc:permits
           rdf:resource="http://creativecommons.org/ns#DerivativeWorks" />
        <cc:requires
           rdf:resource="http://creativecommons.org/ns#ShareAlike" />
      </cc:License>
    </rdf:RDF>
  </metadata>
  <g
     style="display:inline"
     id="g3346">
    <path
       id="path3348"
       d="M 125.25,15.71875 C 114.8383,16.475636 98.304229,26.637619 90.517278,40.465978 83.728954,52.520939 82.200004,69.99901 84.867655,83.43383 39.002915,84.753513 8.2945435,91.112556 6.707669,118.94253 6.5293597,148.11522 25.241981,162.39862 51.5625,163.0625 c -12.992339,21.42062 -17.261314,53.29064 5.31594,65.88411 9.515227,5.30754 21.531078,6.21386 32.030707,4.35634 24.247983,-4.28978 33.298023,-22.65647 43.577933,-39.5799 8.72502,22.86813 58.62986,62.40208 86.74942,28.0416 28.11955,-34.36049 -9.43299,-53.31155 -20.72404,-65.35998 13.39599,1.4304 15.66405,3.55009 25.6946,-0.37823 12.83469,-5.94408 19.37592,-21.38144 16.4568,-34.28977 C 234.71078,95.412174 195.83381,80.116691 173.92356,81.375 166.5138,48.030365 160.71015,13.140949 125.25,15.71875 Z m 0.375,43.315499 c 8.40263,3.127944 7.1704,19.423445 6.26369,28.763858 0.54141,11.509658 -6.29203,25.954273 8.03188,28.228273 12.39906,3.1644 27.21989,0.89139 39.83002,2.48825 6.04898,1.16091 17.50428,0.48494 17.67348,7.0622 -7.50197,4.48085 -24.62919,0.42892 -36.51216,1.32514 -8.75777,0.66052 -15.72968,-0.69659 -19.98415,4.04157 -4.78581,7.71275 10.37147,24.17853 18.06535,32.28706 4.90691,9.87607 20.57372,14.93061 18.87335,23.5842 -9.16631,1.80112 -13.21172,-10.10698 -19.66298,-15.92284 -8.4819,-7.35504 -23.19876,-25.65012 -32.87123,-27.48841 -8.46635,-2.79539 -10.07897,5.33329 -16.55472,16.37273 -6.78755,11.125 -18.490944,30.82101 -25.675677,31.49219 -7.350157,0.46197 2.042889,-13.77188 4.411872,-19.08602 C 92.270578,161.51179 99.674086,153.50864 101.96875,143.125 103.70581,129.22537 92.113159,130.4775 81.36927,128.77055 70.625381,127.0636 50.925317,134.42362 48.1875,125.5 c 4.930621,-7.47332 29.640329,-5.93205 40.786652,-6.47311 11.146328,-0.54106 18.289188,4.45601 26.029578,-3.29313 7.51719,-7.52568 2.45312,-21.269425 3.34025,-31.798427 0.69471,-8.245254 -0.78797,-22.397725 7.28102,-24.901084 z"
       style="fill:url(#linearGradient4158);fill-opacity:1;stroke:#e7e7e8;stroke-width:10;stroke-linecap:round;stroke-linejoin:round;stroke-miterlimit:4;stroke-dasharray:none;stroke-opacity:1" />
  </g>
</svg>
